<?xml version="1.0" encoding="utf-8"?>
<!-- Generator: Adobe Illustrator 26.0.1, SVG Export Plug-In . SVG Version: 6.00 Build 0)  -->
<svg version="1.1" id="Capa_1" xmlns="http://www.w3.org/2000/svg" xmlns:xlink="http://www.w3.org/1999/xlink" x="0px" y="0px"
	 viewBox="0 0 1146 292" style="enable-background:new 0 0 1146 292;" xml:space="preserve">
<style type="text/css">
	.st0{fill:#12100B;}
	.st1{fill:#EA0029;}
</style>
<g>
	<path class="st0" d="M363.93,87.73c-1.74,0-3.25-1.29-3.49-3.06c-1.77-13.22-3.16-45.75-3.21-47.13l-0.13-2.97l2.9-0.63
		c1.88-0.4,191.18-40.24,430.59-1.79l2.9,0.47l0.07,2.94c0.48,21.88,0.09,31.04-2.13,49.08c-0.24,1.93-2.02,3.29-3.93,3.07
		c-1.93-0.24-3.31-1.99-3.07-3.93c2.08-16.99,2.52-25.54,2.13-45.12c-220.59-34.9-397.56-3.21-422.17,1.59
		c0.39,8.52,1.6,32.88,3.02,43.49c0.26,1.92-1.1,3.7-3.03,3.96C364.24,87.72,364.09,87.73,363.93,87.73z"/>
	<g>
		<path class="st0" d="M298.45,114.56c4.61-0.45,9.2-0.86,13.81-1.28c7.1-0.64,13.36,1.82,14.02,9.65c0.4,4.7-1.26,6.82-5.37,8.59
			c0.01,0.09,0.02,0.17,0.03,0.25c0.62,0.4,1.37,0.83,2.07,1.69c2.56,3.17,5.1,6.34,7.65,9.52c-4.36,0.36-8.7,0.73-13.04,1.12
			c-1.95-3.17-3.91-6.35-5.87-9.52c-0.06,0-0.14,0.02-0.21,0.02c0.31,3.32,0.6,6.64,0.91,9.96c-3.69,0.34-7.38,0.68-11.06,1.03
			C300.42,135.26,299.44,124.9,298.45,114.56z M310.88,127.28c0.26-0.03,0.53-0.06,0.79-0.08c1.86-0.18,3.71-0.62,3.51-2.93
			c-0.21-2.39-1.94-2.53-3.89-2.35c-0.29,0.03-0.58,0.07-0.88,0.08C310.56,123.76,310.72,125.52,310.88,127.28z"/>
		<path class="st0" d="M329.87,111.76c7.05-0.59,14.11-1.16,21.16-1.69c0.22,2.83,0.43,5.67,0.65,8.49
			c-3.2,0.25-6.41,0.49-9.62,0.75c0.08,0.99,0.16,1.97,0.24,2.97c2.93-0.24,5.85-0.47,8.77-0.69c0.21,2.69,0.42,5.39,0.63,8.07
			c-2.92,0.23-5.84,0.46-8.75,0.69c0.08,1.02,0.16,2.03,0.24,3.05c3.3-0.25,6.6-0.52,9.9-0.77c0.22,2.83,0.43,5.65,0.65,8.49
			c-7.09,0.54-14.18,1.11-21.26,1.7C331.61,132.46,330.74,122.11,329.87,111.76z"/>
		<path class="st0" d="M359.44,129.49c0.21,0.14,0.41,0.28,0.62,0.41c2.14,1.42,4.69,2.53,7.29,2.33c1.12-0.08,2.87-0.66,2.77-2.06
			c-0.1-1.4-1.6-1.41-2.65-1.55c-0.77-0.09-1.54-0.17-2.31-0.26c-4.5-0.46-8.44-2.78-8.8-7.64c-0.56-7.38,5.94-12.01,12.8-12.49
			c3.58-0.26,6.95,0.38,10.16,2.04c-0.85,2.72-1.7,5.44-2.55,8.17c-2.04-1.19-4.32-2.07-6.78-1.9c-1,0.07-2.43,0.54-2.34,1.83
			c0.08,1.15,1.51,1.21,2.39,1.36c0.87,0.14,1.74,0.27,2.62,0.4c4.9,0.74,8.56,3.07,8.91,8.35c0.49,7.43-6.04,11.55-12.77,12.03
			c-3.92,0.28-8.54-0.46-12.2-1.97C357.56,135.52,358.5,132.51,359.44,129.49z"/>
		<path class="st0" d="M381.59,107.87c8.02-0.53,16.04-1.02,24.07-1.49c0.2,3.37,0.4,6.75,0.59,10.11c-2.1,0.03-4.21,0.05-6.31,0.09
			c0.43,7.1,0.86,14.2,1.28,21.29c-3.78,0.23-7.55,0.46-11.33,0.71c-0.46-7.09-0.91-14.2-1.37-21.3c-2.09,0.24-4.18,0.47-6.26,0.7
			C382.04,114.62,381.82,111.25,381.59,107.87z"/>
		<path class="st0" d="M443.12,120.13c0.45,10.01-7.01,16.34-16.52,16.82c-9.5,0.49-17.58-5.05-18.15-15.03
			c-0.57-9.78,6.92-16.6,16.5-17.09C434.53,104.34,442.68,110.35,443.12,120.13z M419.93,121.45c0.19,3.55,2.73,5.86,6.17,5.68
			c3.44-0.18,5.73-2.73,5.55-6.28c-0.16-3.31-2.55-5.96-6.18-5.77C421.85,115.25,419.75,118.15,419.93,121.45z"/>
		<path class="st0" d="M446.46,104.3c4.61-0.2,9.22-0.39,13.84-0.58c7.11-0.28,13.24,2.49,13.51,10.34c0.16,4.72-1.6,6.75-5.78,8.32
			c0,0.08,0.01,0.17,0.01,0.25c0.6,0.43,1.32,0.9,1.98,1.79c2.39,3.29,4.78,6.59,7.16,9.89c-4.37,0.15-8.72,0.31-13.09,0.47
			c-1.78-3.26-3.57-6.53-5.37-9.8c-0.07,0-0.14,0-0.21,0c0.14,3.33,0.27,6.67,0.41,10c-3.69,0.15-7.39,0.3-11.09,0.47
			C447.37,125.07,446.92,114.68,446.46,104.3z M458.23,117.62c0.26-0.01,0.52-0.02,0.78-0.03c1.88-0.08,3.74-0.44,3.65-2.75
			c-0.1-2.4-1.82-2.62-3.78-2.54c-0.29,0-0.58,0.02-0.87,0.04C458.08,114.1,458.15,115.86,458.23,117.62z"/>
		<path class="st0" d="M488.35,133.94c-4.01,0.12-8.01,0.25-12.01,0.4c3.25-10.52,6.55-21.02,9.89-31.53
			c4.22-0.13,8.45-0.25,12.67-0.36c4.03,10.3,8.02,20.59,11.96,30.89c-4.01,0.09-8,0.19-12.01,0.3c-0.38-1.28-0.76-2.57-1.14-3.86
			c-2.85,0.08-5.71,0.17-8.57,0.25C488.87,131.33,488.6,132.64,488.35,133.94z M495.53,122.44c-0.49-1.81-0.99-3.64-1.49-5.46
			c-0.37-1.32-0.61-2.68-0.86-3.99c-0.14,0-0.28,0.01-0.42,0.01c-0.6,3.19-1.21,6.37-1.8,9.57
			C492.48,122.52,494,122.48,495.53,122.44z"/>
		<path class="st0" d="M507.02,102.25c8.03-0.19,16.06-0.35,24.1-0.47c0.05,3.37,0.1,6.75,0.16,10.13c-2.11-0.06-4.21-0.13-6.31-0.2
			c0.13,7.11,0.26,14.23,0.38,21.33c-3.78,0.08-7.57,0.15-11.34,0.23c-0.15-7.11-0.3-14.22-0.46-21.33
			c-2.1,0.14-4.19,0.29-6.29,0.43C507.19,109,507.11,105.62,507.02,102.25z"/>
		<path class="st0" d="M534.21,101.72c3.82-0.06,7.65-0.1,11.47-0.15c0.1,10.39,0.21,20.79,0.32,31.18
			c-3.78,0.04-7.56,0.09-11.34,0.14C534.52,122.51,534.37,112.12,534.21,101.72z"/>
		<path class="st0" d="M584.72,117.1c-0.03,10.01-7.79,15.97-17.31,16.01c-9.52,0.03-17.3-5.89-17.4-15.9
			c-0.11-9.8,7.71-16.24,17.29-16.27C576.9,100.91,584.76,107.3,584.72,117.1z M561.5,117.29c0.02,3.56,2.44,5.98,5.89,5.97
			c3.44,0,5.85-2.46,5.84-6.01c0-3.3-2.26-6.08-5.88-6.06C563.72,111.2,561.48,113.99,561.5,117.29z"/>
		<path class="st0" d="M588.65,101.44c3.67,0.01,7.33,0.04,11,0.07c3.39,5.78,6.75,11.58,10.1,17.38c0.11,0,0.22,0,0.33,0
			c-0.42-2.62-0.89-5.31-0.87-7.94c0.04-3.12,0.07-6.24,0.11-9.36c3.65,0.05,7.3,0.09,10.96,0.15c-0.15,10.39-0.3,20.78-0.45,31.17
			c-3.62-0.05-7.24-0.1-10.85-0.14c-3.26-5.49-6.54-10.98-9.85-16.46c-0.11,0-0.22-0.01-0.33-0.01c0.36,2.15,0.68,4.19,0.66,6.25
			c-0.02,3.37-0.04,6.75-0.07,10.13c-3.62-0.03-7.24-0.04-10.84-0.06C588.57,122.22,588.61,111.83,588.65,101.44z"/>
		<path class="st0" d="M644.12,122.2c0.2,0.15,0.39,0.31,0.58,0.46c2,1.62,4.42,2.96,7.04,3.03c1.12,0.02,2.92-0.38,2.95-1.78
			c0.04-1.41-1.45-1.57-2.5-1.8c-0.75-0.16-1.52-0.32-2.27-0.48c-4.43-0.89-8.11-3.59-8-8.46c0.15-7.4,7.07-11.38,13.93-11.2
			c3.6,0.1,6.88,1.06,9.91,3.02c-1.1,2.63-2.21,5.26-3.32,7.88c-1.92-1.38-4.1-2.48-6.57-2.54c-1-0.03-2.47,0.32-2.5,1.59
			c-0.03,1.16,1.39,1.36,2.25,1.59c0.86,0.22,1.72,0.44,2.57,0.66c4.81,1.2,8.22,3.88,8.06,9.16c-0.23,7.44-7.12,10.91-13.86,10.74
			c-3.94-0.1-8.47-1.28-11.94-3.13C641.67,128.01,642.9,125.1,644.12,122.2z"/>
		<path class="st0" d="M670.27,102.88c7.07,0.22,14.14,0.46,21.21,0.74c-0.11,2.84-0.22,5.67-0.34,8.51
			c-3.2-0.13-6.42-0.25-9.63-0.36c-0.03,0.99-0.07,1.99-0.1,2.98c2.93,0.11,5.87,0.21,8.79,0.32c-0.1,2.7-0.2,5.4-0.31,8.11
			c-2.92-0.12-5.84-0.23-8.76-0.33c-0.04,1.02-0.08,2.03-0.11,3.05c3.3,0.12,6.61,0.24,9.92,0.37c-0.11,2.84-0.23,5.68-0.32,8.51
			c-7.11-0.28-14.21-0.53-21.32-0.75C669.61,123.66,669.94,113.26,670.27,102.88z"/>
		<path class="st0" d="M696.53,103.83c4.61,0.18,9.23,0.38,13.84,0.6c7.11,0.31,12.98,3.59,12.58,11.43
			c-0.24,4.72-2.16,6.6-6.46,7.8c-0.01,0.08-0.01,0.17-0.02,0.26c0.56,0.47,1.24,1.01,1.81,1.94c2.11,3.48,4.21,6.96,6.31,10.45
			c-4.36-0.21-8.71-0.43-13.08-0.62c-1.5-3.41-3.01-6.82-4.52-10.22c-0.07-0.01-0.14-0.01-0.2-0.01c-0.15,3.32-0.29,6.65-0.44,9.99
			c-3.69-0.17-7.39-0.32-11.08-0.47C695.69,124.59,696.11,114.22,696.53,103.83z M707.12,118.1c0.27,0.01,0.53,0.02,0.8,0.03
			c1.87,0.09,3.75-0.12,3.86-2.43c0.11-2.4-1.59-2.76-3.55-2.85c-0.29-0.02-0.58-0.02-0.87-0.04
			C707.28,114.57,707.2,116.33,707.12,118.1z"/>
		<path class="st0" d="M758.82,107c-4.71,10.12-9.37,20.26-13.99,30.41c-3.2-0.18-6.4-0.37-9.59-0.54
			c-3.47-10.6-6.99-21.18-10.53-31.77c3.99,0.2,7.97,0.4,11.95,0.62c1.14,4.79,2.27,9.59,3.39,14.39c0.38,1.55,0.62,3.1,0.53,4.67
			c0.09,0,0.17,0.01,0.26,0.01c0.09-1.57,0.5-3.08,1.04-4.58c1.65-4.65,3.31-9.28,4.97-13.93
			C750.86,106.52,754.84,106.75,758.82,107z"/>
		<path class="st0" d="M761.45,107.16c3.82,0.24,7.64,0.48,11.46,0.74c-0.69,10.37-1.38,20.74-2.07,31.11
			c-3.77-0.25-7.54-0.49-11.32-0.72C760.16,127.9,760.81,117.54,761.45,107.16z"/>
		<path class="st0" d="M800.59,122.55c-1.7-1.83-3.88-3.44-6.46-3.63c-3.41-0.25-6.4,2.23-6.63,5.61c-0.26,3.42,2.51,6.27,5.89,6.52
			c2.62,0.2,4.77-0.76,6.73-2.39c-0.41,3.86-0.81,7.73-1.21,11.6c-1.89,0.72-6.12,0.77-8.15,0.63c-8.88-0.65-15.36-8-14.76-16.87
			c0.6-9.08,8.32-15.85,17.56-15.18c2.59,0.19,5.23,0.84,7.58,1.85C800.97,114.65,800.77,118.6,800.59,122.55z"/>
		<path class="st0" d="M805.43,110.23c7.06,0.55,14.11,1.13,21.16,1.72c-0.24,2.83-0.48,5.65-0.72,8.49
			c-3.19-0.27-6.41-0.53-9.61-0.79c-0.08,0.99-0.16,1.98-0.24,2.96c2.93,0.25,5.84,0.49,8.77,0.73c-0.23,2.69-0.45,5.38-0.68,8.08
			c-2.92-0.25-5.84-0.49-8.75-0.73c-0.09,1.02-0.16,2.03-0.26,3.05c3.3,0.26,6.61,0.54,9.9,0.82c-0.24,2.82-0.48,5.65-0.71,8.48
			c-7.09-0.6-14.18-1.17-21.27-1.73C803.83,130.96,804.63,120.6,805.43,110.23z"/>
		<path class="st0" d="M831.79,132.47c0.17,0.17,0.36,0.33,0.54,0.51c1.89,1.74,4.23,3.23,6.83,3.46c1.11,0.11,2.94-0.19,3.07-1.59
			c0.13-1.39-1.36-1.66-2.38-1.95c-0.75-0.21-1.49-0.41-2.24-0.61c-4.36-1.18-7.86-4.1-7.45-8.95c0.62-7.37,7.78-10.91,14.62-10.29
			c3.6,0.33,6.81,1.5,9.71,3.65c-1.28,2.55-2.55,5.1-3.82,7.65c-1.84-1.49-3.95-2.73-6.4-2.96c-1-0.08-2.49,0.16-2.6,1.43
			c-0.1,1.15,1.3,1.45,2.15,1.73c0.84,0.27,1.69,0.55,2.52,0.81c4.72,1.52,7.97,4.4,7.47,9.66c-0.7,7.41-7.81,10.43-14.54,9.83
			c-3.92-0.35-8.37-1.83-11.73-3.9C828.95,138.13,830.37,135.3,831.79,132.47z"/>
	</g>
	<g>
		<path class="st0" d="M393.81,93.87c-6.13,0.44-12.25,0.89-18.37,1.38c4.28-16.33,8.67-32.64,13.16-48.94
			c6.52-0.47,13.04-0.91,19.56-1.34c6.81,15.53,13.52,31.08,20.13,46.67c-6.13,0.35-12.25,0.72-18.38,1.12
			c-0.66-1.95-1.32-3.89-1.98-5.84c-4.38,0.28-8.76,0.59-13.14,0.9C394.45,89.84,394.13,91.86,393.81,93.87z M404.12,75.8
			c-0.87-2.76-1.74-5.51-2.62-8.28c-0.65-1.99-1.11-4.05-1.57-6.05c-0.22,0.01-0.43,0.02-0.65,0.04c-0.73,4.92-1.47,9.84-2.19,14.76
			C399.44,76.12,401.78,75.96,404.12,75.8z"/>
		<path class="st0" d="M426.61,43.85c5.9-0.34,11.8-0.66,17.7-0.96c0.55,10.81,1.09,21.62,1.64,32.42c4.89-0.25,9.78-0.49,14.67-0.7
			c0.23,5.11,0.46,10.22,0.69,15.32c-10.66,0.48-21.31,1.03-31.96,1.64C428.43,75.67,427.52,59.76,426.61,43.85z"/>
		<path class="st0" d="M461.42,42.09c5.9-0.27,11.8-0.5,17.7-0.73c0.4,10.81,0.81,21.63,1.21,32.44c4.89-0.19,9.78-0.35,14.67-0.5
			c0.16,5.11,0.32,10.23,0.48,15.34c-10.65,0.33-21.32,0.73-31.97,1.2C462.82,73.92,462.12,58.01,461.42,42.09z"/>
		<path class="st0" d="M517.19,40.23c12.41-0.28,24.82-0.46,37.24-0.56c0.04,5.18,0.09,10.36,0.13,15.53
			c-3.24-0.13-6.48-0.24-9.71-0.35c0.13,10.91,0.26,21.81,0.39,32.72c-5.8,0.06-11.6,0.15-17.39,0.26
			c-0.2-10.9-0.41-21.81-0.61-32.71c-3.23,0.2-6.46,0.42-9.7,0.64C517.42,50.58,517.3,45.41,517.19,40.23z"/>
		<path class="st0" d="M556.49,39.65c7.13-0.05,14.27-0.08,21.41-0.06c11,0,20.27,4.66,20.15,16.7c-0.07,7.23-2.91,10.24-9.44,12.37
			c0,0.12,0,0.26,0,0.38c0.89,0.7,1.98,1.47,2.92,2.87c3.45,5.2,6.9,10.4,10.3,15.62c-6.67-0.08-13.37-0.12-20.05-0.13
			c-2.53-5.12-5.07-10.24-7.63-15.35c-0.1,0-0.21,0-0.32,0c0,5.11,0.01,10.22,0.01,15.34c-5.67,0.01-11.34,0.03-17.01,0.07
			C556.72,71.52,556.6,55.58,556.49,39.65z M573.83,60.76c0.41,0,0.81,0,1.22,0c2.89,0,5.77-0.44,5.78-3.99
			c0-3.68-2.63-4.13-5.65-4.13c-0.45,0-0.9,0-1.35,0C573.82,55.34,573.83,58.05,573.83,60.76z"/>
		<path class="st0" d="M616.42,87.71c-6.14-0.11-12.27-0.18-18.41-0.23c5.68-15.89,11.47-31.75,17.36-47.61
			c6.53,0.11,13.06,0.23,19.59,0.38c5.43,16.07,10.76,32.15,15.98,48.25c-6.13-0.18-12.27-0.35-18.41-0.48c-0.48-2-0.97-4-1.46-5.99
			c-4.39-0.1-8.78-0.19-13.16-0.26C617.42,83.75,616.92,85.73,616.42,87.71z M628.26,70.62c-0.62-2.82-1.25-5.64-1.87-8.47
			c-0.48-2.04-0.75-4.14-1.03-6.17c-0.22-0.01-0.43-0.01-0.64-0.02c-1.17,4.85-2.32,9.68-3.47,14.52
			C623.59,70.53,625.92,70.57,628.26,70.62z"/>
		<path class="st0" d="M653.58,40.76c6.01,0.18,12.02,0.38,18.03,0.6c16.37,0.6,28.57,8.26,27.7,25.8
			c-0.71,14.19-11.16,22.68-25.16,22.14c-7.34-0.29-14.67-0.54-22.01-0.76C652.62,72.61,653.1,56.68,653.58,40.76z M670.05,74.8
			c0.36,0.02,0.72,0.03,1.08,0.04c5.8,0.21,10.38-2.26,10.64-8.53c0.28-6.71-3.52-9.73-9.95-9.98c-0.36-0.01-0.72-0.02-1.09-0.04
			C670.51,62.46,670.28,68.63,670.05,74.8z"/>
		<path class="st0" d="M704.03,42.76c10.92,0.54,21.84,1.15,32.75,1.83c-0.27,4.35-0.54,8.69-0.81,13.04
			c-4.94-0.31-9.89-0.6-14.84-0.88c-0.08,1.52-0.17,3.04-0.26,4.55c4.51,0.26,9.02,0.52,13.53,0.8c-0.25,4.14-0.51,8.27-0.76,12.41
			c-4.49-0.28-8.97-0.54-13.47-0.8c-0.09,1.56-0.17,3.12-0.26,4.69c5.08,0.29,10.16,0.58,15.23,0.91
			c-0.27,4.34-0.54,8.68-0.81,13.03c-10.88-0.68-21.76-1.29-32.65-1.83C702.45,74.6,703.25,58.68,704.03,42.76z"/>
		<path class="st0" d="M742.91,75.73c0.28,0.25,0.56,0.5,0.85,0.75c2.97,2.61,6.59,4.83,10.6,5.11c1.72,0.12,4.5-0.39,4.66-2.54
			c0.15-2.15-2.13-2.5-3.71-2.93c-1.15-0.29-2.3-0.59-3.46-0.87c-6.74-1.68-12.24-6.03-11.77-13.49
			c0.71-11.32,11.64-16.99,22.24-16.22c5.55,0.4,10.56,2.12,15.1,5.33c-1.91,3.94-3.8,7.88-5.69,11.83
			c-2.86-2.25-6.15-4.09-9.94-4.36c-1.54-0.12-3.83,0.3-3.97,2.26c-0.13,1.78,2.04,2.17,3.36,2.59c1.31,0.39,2.6,0.78,3.91,1.18
			c7.31,2.19,12.38,6.54,11.74,14.63c-0.91,11.37-11.73,16.18-22.05,15.45c-6.01-0.42-12.87-2.53-18.09-5.59
			C738.76,84.49,740.82,80.11,742.91,75.73z"/>
	</g>
	<g>
		<path class="st1" d="M779.05,157.27c-242.41-19.4-401.09-1.77-401.09-1.77s22.8,77.57,195.54,125.56
			C743.79,230.9,779.05,157.27,779.05,157.27z"/>
		<path class="st0" d="M573.53,284.72l-0.98-0.26C399.91,236.5,375.53,159.74,374.58,156.5l-1.19-4.04l4.17-0.46
			c0.67-0.08,67.52-7.37,178.41-7.37c72.63,0,147.78,3.07,223.35,9.12l5.11,0.41l-2.21,4.63c-1.47,3.06-37.89,75.62-207.74,125.65
			L573.53,284.72z M383,158.55c7.62,16.29,45.35,78.3,190.46,118.85c141.32-41.83,188.61-100.37,199.64-117.06
			c-73.49-5.74-146.5-8.65-217.13-8.65C462.07,151.69,399.92,156.93,383,158.55z"/>
	</g>
	<g>
		<path class="st0" d="M423.59,158.81c4.92-0.33,8.28,2.98,8.58,7.45c0.28,4.26-2.91,8.12-7.53,8.42c-4.42,0.29-8.12-2.95-8.41-7.37
			C415.93,162.85,419.12,159.11,423.59,158.81z M423.85,162.37c-2.52,0.17-3.89,2.49-3.74,4.71c0.14,2.13,2.05,4.2,4.29,4.05
			c2.31-0.15,4.05-2.27,3.89-4.54C428.14,164.27,426.27,162.2,423.85,162.37z"/>
		<path class="st0" d="M436.24,161.9l0.1,1.71c0.78-1.09,1.6-1.89,3.05-1.97c2.61-0.15,3.85,1.58,3.99,4.08l0.41,7.23l-3.38,0.64
			l-0.39-6.99c-0.06-1.09-0.24-1.79-1.48-1.72c-1.64,0.09-1.84,1.31-1.77,2.44l0.33,6l-3.38,0.65l-0.64-11.42L436.24,161.9z"/>
		<path class="st0" d="M462.8,167.83c0.09,2.9-2.59,4.92-5.59,5.05c-2.38,0.12-3.72-0.35-5.63-1.72l2.1-2.85
			c0.87,0.75,1.88,1.3,3.06,1.25c1.06-0.05,2.23-0.4,2.17-1.67c-0.1-2.22-7.19-0.6-7.44-5.86c-0.15-3.23,2.62-4.93,5.39-5.05
			c1.91-0.09,3.59,0.4,5.16,1.47l-2.1,2.79c-0.85-0.67-1.68-0.97-2.77-0.92c-0.77,0.04-1.82,0.38-1.78,1.36
			C455.47,163.89,462.62,161.96,462.8,167.83z"/>
		<path class="st0" d="M465.18,155.96l2.43,1.94l-2.26,2.14l-2.43-1.94L465.18,155.96z M467.07,160.4l0.48,11.43l-3.39,0.6
			l-0.48-11.43L467.07,160.4z"/>
		<path class="st0" d="M472.17,157.21l0.13,3.43l1.91-0.07l0.12,3.02l-1.91,0.07l0.12,3.23c0.03,0.93,0.03,1.93,1.76,1.82
			c0,0,0.73,0,1.09-0.07l-0.74,3.35c-0.31,0.04-0.97,0.04-0.97,0.04c-2.89,0.1-4.42-1.91-4.54-5.02l-0.13-3.23l-1.77,0.07l0.7-3.05
			l0.96-0.04l-0.08-2.06L472.17,157.21z"/>
		<path class="st0" d="M486.66,163.17l-7.12,4.88c0.51,0.42,1.09,0.72,1.8,0.69c1.27-0.04,2.3-0.69,3.3-1.41l1.86,2.58
			c-1.51,1.19-3.05,1.95-5,2.01c-3.18,0.11-6.16-2.56-6.27-5.75c-0.12-3.5,2.29-6.24,5.93-6.37
			C483.77,159.71,485.56,161.12,486.66,163.17z M482.57,163.31c-0.4-0.28-0.81-0.5-1.31-0.48c-1.64,0.06-2.82,1.53-2.76,3.12
			L482.57,163.31z"/>
		<path class="st0" d="M489.99,166.84l2.62,2.51l-2.47,2.65l-2.65-2.54L489.99,166.84z"/>
		<path class="st0" d="M508.48,155.28c4.94-0.11,8.14,3.34,8.24,7.82c0.09,4.27-3.27,7.98-7.91,8.08c-4.43,0.09-7.98-3.31-8.07-7.75
			C500.64,158.97,504,155.37,508.48,155.28z M508.58,158.85c-2.52,0.05-4,2.31-3.95,4.54c0.04,2.14,1.86,4.28,4.12,4.23
			c2.32-0.04,4.14-2.09,4.09-4.35C512.78,160.94,511.01,158.8,508.58,158.85z"/>
		<path class="st0" d="M520.93,158.92l0.03,1.7c0.82-1.06,1.67-1.82,3.13-1.84c2.61-0.04,3.77,1.74,3.81,4.24l0.11,7.23l-3.4,0.5
			l-0.1-7c-0.01-1.09-0.16-1.79-1.42-1.77c-1.63,0.03-1.89,1.24-1.87,2.37l0.08,6l-3.41,0.5l-0.16-11.43L520.93,158.92z"/>
		<path class="st0" d="M536.88,155.09l4.57-0.03c2.61-0.02,6.37,0.53,6.39,4.66c0.03,3.36-2.21,5.01-6.19,5.04l-0.84,0l0.03,5.36
			l-3.86,0.48L536.88,155.09z M543.94,159.83c-0.01-1.02-0.89-1.65-2.14-1.64c-0.35,0-0.69,0.03-1.02,0.08l0.02,3.38l0.88-0.01
			C542.79,161.64,543.94,161.09,543.94,159.83z"/>
		<path class="st0" d="M554.31,158.59c3.38,0,6.24,2.33,6.25,5.99c0.01,3.31-2.68,6.11-6.27,6.12c-3.36,0-6.16-2.66-6.16-6.05
			C548.13,161.12,550.81,158.59,554.31,158.59z M554.34,161.76c-1.55,0-2.75,1.33-2.75,2.85c0,1.47,1.23,2.91,2.75,2.91
			c1.54-0.01,2.77-1.46,2.77-2.94C557.11,163.08,555.86,161.76,554.34,161.76z"/>
		<path class="st0" d="M563.29,154.16l2.34,2.05l-2.35,2.04l-2.33-2.05L563.29,154.16z M564.98,158.66l-0.03,11.43l-3.41,0.45
			l0.03-11.43L564.98,158.66z"/>
		<path class="st0" d="M569.8,158.67l-0.01,1.71c0.85-1.05,1.71-1.79,3.17-1.78c2.61,0.02,3.74,1.82,3.73,4.32l-0.04,7.23
			l-3.41,0.43l0.04-7c0.01-1.09-0.13-1.8-1.38-1.8c-1.64-0.01-1.92,1.19-1.92,2.33l-0.03,5.99l-3.41,0.44l0.06-11.43L569.8,158.67z"
			/>
		<path class="st0" d="M581.98,155.8l-0.03,3.43l1.91,0.01l-0.03,3.02l-1.91-0.02l-0.03,3.23c-0.01,0.93-0.06,1.93,1.67,1.9
			c0,0,0.73,0.04,1.09,0l-0.89,3.3c-0.32,0.02-0.98-0.01-0.98-0.01c-2.89-0.03-4.32-2.11-4.29-5.23l0.02-3.22l-1.77-0.02l0.85-3.02
			l0.95,0.01l0.02-2.07L581.98,155.8z"/>
		<path class="st0" d="M587.83,166.07l2.52,2.62l-2.58,2.54l-2.53-2.65L587.83,166.07z"/>
		<path class="st0" d="M606.8,155.28c4.93,0.1,8,3.68,7.91,8.15c-0.08,4.27-3.59,7.84-8.22,7.75c-4.44-0.09-7.84-3.63-7.75-8.06
			C598.82,158.64,602.32,155.19,606.8,155.28z M606.75,158.85c-2.52-0.05-4.09,2.15-4.13,4.38c-0.05,2.13,1.69,4.35,3.94,4.4
			c2.32,0.04,4.22-1.92,4.26-4.19C610.87,161.12,609.18,158.89,606.75,158.85z"/>
		<path class="st0" d="M619.09,159.41l-0.05,1.71c0.87-1.02,1.75-1.75,3.21-1.71c2.61,0.07,3.71,1.89,3.65,4.39l-0.19,7.23
			l-3.42,0.37l0.18-7c0.03-1.09-0.09-1.8-1.34-1.83c-1.63-0.04-1.94,1.15-1.96,2.3l-0.15,6l-3.42,0.37l0.29-11.42L619.09,159.41z"/>
		<path class="st0" d="M647.35,157.54l-7.01,14.64l-3.98-0.67l2.64-4.99l-5.51-9.07l3.68-1.26l3.8,6.27l2.82-6.05L647.35,157.54z"/>
		<path class="st0" d="M651.94,160.35c3.38,0.13,6.16,2.57,6.02,6.23c-0.12,3.32-2.91,6.01-6.5,5.88c-3.36-0.12-6.06-2.89-5.94-6.27
			C645.66,162.64,648.44,160.22,651.94,160.35z M651.85,163.54c-1.55-0.06-2.8,1.22-2.86,2.74c-0.06,1.48,1.12,2.96,2.64,3.02
			c1.55,0.05,2.83-1.36,2.88-2.84C654.57,164.96,653.36,163.59,651.85,163.54z"/>
		<path class="st0" d="M669.15,161.1l-0.47,11.43l-3.07,0.33l0.08-1.93c-0.33,1.23-1.4,2.03-2.93,1.97
			c-3.09-0.13-3.95-2.32-3.86-4.65l0.3-7.11l3.43-0.31l-0.32,7.56c-0.04,0.94,0.47,1.32,1.26,1.36c1.36,0.05,1.83-0.77,1.88-1.95
			l0.27-6.38L669.15,161.1z"/>
		<path class="st0" d="M673.86,161.32l-0.1,2.27c0.49-1.26,1.31-2.31,3.06-2.23c0.34,0.02,0.7,0.07,1.04,0.14l-1.16,3.42
			c-2.44-0.47-2.75,1.3-2.84,3.4l-0.2,4.43l-3.43,0.3l0.52-11.42L673.86,161.32z"/>
		<path class="st0" d="M695.42,169.64c-0.2,2.91-3.07,4.64-6.06,4.48c-2.39-0.12-3.68-0.71-5.44-2.26l2.37-2.63
			c0.8,0.84,1.74,1.48,2.92,1.54c1.07,0.05,2.26-0.19,2.33-1.46c0.11-2.22-7.1-1.29-6.83-6.56c0.17-3.22,3.09-4.64,5.86-4.5
			c1.91,0.1,3.53,0.75,5,1.96l-2.36,2.57c-0.78-0.75-1.58-1.13-2.67-1.18c-0.77-0.05-1.85,0.2-1.9,1.17
			C688.5,165.01,695.8,163.79,695.42,169.64z"/>
		<path class="st0" d="M700.35,162.64l-0.61,11.41l-3.43,0.28l0.61-11.42L700.35,162.64z M698.89,158.06l2.23,2.16l-2.45,1.92
			l-2.22-2.17L698.89,158.06z"/>
		<path class="st0" d="M713.85,159.31l-0.88,15.5l-3.14,0.28l0.09-1.63c-0.99,1.26-1.96,1.68-3.58,1.59
			c-3.02-0.17-5.49-3.23-5.31-6.2c0.19-3.36,2.58-6.1,6.21-5.89c1.12,0.06,2.09,0.55,2.92,1.28l0.26-4.68L713.85,159.31z
			 M707.47,166.16c-1.59-0.09-2.89,1.13-2.97,2.7c-0.09,1.48,1.05,2.96,2.58,3.04c1.69,0.1,2.88-0.95,2.97-2.58
			C710.14,167.72,708.99,166.24,707.47,166.16z"/>
		<path class="st0" d="M725.94,167.64l-7.56,4.18c0.48,0.46,1.02,0.82,1.73,0.85c1.28,0.08,2.35-0.47,3.42-1.08l1.6,2.75
			c-1.61,1.03-3.22,1.64-5.18,1.51c-3.18-0.19-5.89-3.14-5.69-6.32c0.22-3.5,2.88-5.99,6.51-5.77
			C723.38,163.93,725.04,165.49,725.94,167.64z M721.85,167.39c-0.37-0.32-0.76-0.57-1.26-0.61c-1.64-0.1-2.95,1.26-3.06,2.84
			L721.85,167.39z"/>
		<path class="st0" d="M728.87,171.61l2.37,2.75l-2.7,2.4l-2.39-2.78L728.87,171.61z"/>
	</g>
	<g>
		<defs>
			<path id="SVGID_1_" d="M779.05,157.27c-242.41-19.4-401.09-1.77-401.09-1.77s22.8,78.32,195.54,126.3
				C743.79,231.64,779.05,157.27,779.05,157.27z"/>
		</defs>
		<clipPath id="SVGID_00000022560867806311887080000016476159091107837838_">
			<use xlink:href="#SVGID_1_"  style="overflow:visible;"/>
		</clipPath>
	</g>
</g>
</svg>
