<?xml version="1.0" encoding="utf-8"?>
<!-- Generator: Adobe Illustrator 26.0.1, SVG Export Plug-In . SVG Version: 6.00 Build 0)  -->
<svg version="1.1" id="Capa_1" xmlns="http://www.w3.org/2000/svg" xmlns:xlink="http://www.w3.org/1999/xlink" x="0px" y="0px"
	 viewBox="0 0 1146 292" style="enable-background:new 0 0 1146 292;" xml:space="preserve">
<style type="text/css">
	.st0{fill:#12100B;}
	.st1{fill:#EA0029;}
</style>
<g>
	<path class="st0" d="M364.96,80.92c-1.75,0-3.27-1.29-3.5-3.08c-1.77-13.28-3.17-45.95-3.23-47.34l-0.13-2.98l2.92-0.63
		c1.89-0.4,192.03-40.42,432.51-1.79l2.92,0.47l0.07,2.95c0.48,21.98,0.09,31.18-2.14,49.29c-0.24,1.94-2.03,3.3-3.94,3.08
		c-1.94-0.24-3.33-2-3.09-3.95c2.09-17.07,2.53-25.65,2.14-45.32c-221.57-35.05-399.33-3.23-424.05,1.6
		c0.39,8.56,1.61,33.02,3.03,43.69c0.26,1.93-1.1,3.72-3.04,3.98C365.28,80.91,365.12,80.92,364.96,80.92z"/>
	<g>
		<path class="st0" d="M299.19,107.87c4.63-0.45,9.24-0.87,13.87-1.28c7.13-0.64,13.42,1.83,14.09,9.69
			c0.4,4.72-1.26,6.85-5.39,8.63c0.01,0.09,0.02,0.17,0.03,0.25c0.62,0.4,1.38,0.83,2.08,1.7c2.57,3.19,5.12,6.37,7.68,9.56
			c-4.38,0.36-8.74,0.74-13.1,1.12c-1.96-3.19-3.92-6.37-5.89-9.56c-0.07,0-0.14,0.02-0.21,0.02c0.31,3.33,0.61,6.67,0.91,10
			c-3.7,0.34-7.41,0.68-11.11,1.04C301.16,128.66,300.18,118.25,299.19,107.87z M311.67,120.64c0.26-0.03,0.53-0.06,0.79-0.08
			c1.87-0.18,3.73-0.62,3.52-2.94c-0.21-2.4-1.95-2.54-3.91-2.36c-0.29,0.03-0.58,0.07-0.88,0.08
			C311.35,117.11,311.51,118.88,311.67,120.64z"/>
		<path class="st0" d="M330.75,105.05c7.08-0.59,14.17-1.16,21.26-1.7c0.22,2.84,0.43,5.69,0.65,8.53c-3.22,0.25-6.44,0.5-9.66,0.76
			c0.08,0.99,0.16,1.98,0.24,2.98c2.94-0.24,5.87-0.47,8.81-0.69c0.21,2.7,0.42,5.41,0.63,8.11c-2.93,0.23-5.87,0.46-8.79,0.69
			c0.08,1.02,0.16,2.04,0.24,3.06c3.32-0.25,6.63-0.52,9.95-0.77c0.22,2.84,0.44,5.68,0.65,8.53c-7.12,0.54-14.24,1.11-21.36,1.71
			C332.49,125.85,331.62,115.45,330.75,105.05z"/>
		<path class="st0" d="M360.45,122.87c0.21,0.14,0.41,0.28,0.62,0.41c2.15,1.42,4.71,2.54,7.32,2.34c1.13-0.08,2.88-0.66,2.79-2.07
			c-0.1-1.41-1.61-1.41-2.67-1.56c-0.77-0.09-1.55-0.17-2.32-0.26c-4.52-0.46-8.47-2.79-8.84-7.68
			c-0.56-7.41,5.97-12.07,12.85-12.54c3.6-0.26,6.98,0.38,10.21,2.05c-0.86,2.73-1.7,5.46-2.56,8.2c-2.05-1.2-4.34-2.08-6.81-1.9
			c-1.01,0.07-2.44,0.55-2.35,1.83c0.08,1.15,1.52,1.22,2.41,1.36c0.88,0.14,1.75,0.27,2.63,0.4c4.92,0.75,8.6,3.08,8.95,8.39
			c0.49,7.46-6.07,11.6-12.83,12.08c-3.94,0.28-8.58-0.46-12.25-1.98C358.56,128.92,359.5,125.89,360.45,122.87z"/>
		<path class="st0" d="M382.7,101.15c8.06-0.53,16.11-1.02,24.18-1.5c0.2,3.38,0.4,6.78,0.59,10.16c-2.11,0.03-4.23,0.05-6.34,0.09
			c0.44,7.13,0.86,14.26,1.29,21.39c-3.8,0.23-7.59,0.46-11.38,0.71c-0.46-7.12-0.91-14.26-1.37-21.39c-2.1,0.24-4.2,0.47-6.29,0.71
			C383.15,107.92,382.93,104.54,382.7,101.15z"/>
		<path class="st0" d="M444.5,113.47c0.45,10.05-7.04,16.41-16.59,16.9c-9.54,0.49-17.65-5.07-18.24-15.1
			c-0.58-9.82,6.95-16.67,16.58-17.16C435.87,97.6,444.06,103.64,444.5,113.47z M421.2,114.79c0.19,3.56,2.74,5.88,6.2,5.7
			c3.46-0.18,5.76-2.74,5.58-6.31c-0.16-3.32-2.56-5.98-6.21-5.8C423.13,108.56,421.03,111.47,421.2,114.79z"/>
		<path class="st0" d="M447.86,97.56c4.63-0.2,9.26-0.4,13.9-0.58c7.14-0.28,13.3,2.5,13.57,10.38c0.16,4.74-1.6,6.78-5.81,8.35
			c0,0.08,0.01,0.17,0.01,0.25c0.6,0.44,1.33,0.91,1.99,1.79c2.4,3.3,4.8,6.62,7.19,9.93c-4.39,0.15-8.76,0.31-13.14,0.47
			c-1.79-3.28-3.58-6.56-5.39-9.84c-0.07,0-0.14,0-0.21,0c0.14,3.34,0.27,6.7,0.41,10.04c-3.71,0.15-7.43,0.3-11.14,0.47
			C448.78,118.42,448.32,107.99,447.86,97.56z M459.67,110.94c0.26-0.01,0.53-0.02,0.79-0.03c1.89-0.08,3.76-0.44,3.67-2.76
			c-0.1-2.41-1.83-2.63-3.79-2.55c-0.29,0-0.59,0.02-0.88,0.04C459.53,107.4,459.6,109.17,459.67,110.94z"/>
		<path class="st0" d="M489.93,127.33c-4.03,0.12-8.05,0.25-12.06,0.4c3.27-10.56,6.58-21.11,9.93-31.67
			c4.24-0.13,8.49-0.25,12.73-0.36c4.05,10.34,8.05,20.68,12.02,31.03c-4.02,0.09-8.04,0.19-12.06,0.3
			c-0.38-1.29-0.77-2.58-1.15-3.88c-2.87,0.08-5.74,0.17-8.61,0.25C490.46,124.71,490.19,126.02,489.93,127.33z M497.14,115.78
			c-0.5-1.82-0.99-3.66-1.49-5.48c-0.37-1.33-0.62-2.69-0.87-4c-0.14,0-0.28,0.01-0.42,0.01c-0.6,3.2-1.21,6.4-1.81,9.61
			C494.08,115.87,495.61,115.82,497.14,115.78z"/>
		<path class="st0" d="M508.69,95.5c8.07-0.19,16.13-0.35,24.21-0.47c0.05,3.39,0.1,6.78,0.16,10.18c-2.12-0.07-4.23-0.13-6.34-0.2
			c0.13,7.14,0.26,14.29,0.38,21.43c-3.8,0.08-7.6,0.15-11.39,0.23c-0.16-7.14-0.3-14.28-0.46-21.42c-2.11,0.14-4.21,0.29-6.32,0.43
			C508.86,102.28,508.77,98.88,508.69,95.5z"/>
		<path class="st0" d="M536,94.97c3.84-0.06,7.68-0.1,11.52-0.15c0.1,10.44,0.21,20.88,0.32,31.32c-3.79,0.04-7.59,0.09-11.39,0.14
			C536.31,115.86,536.16,105.41,536,94.97z"/>
		<path class="st0" d="M586.74,110.42c-0.03,10.05-7.83,16.04-17.38,16.08c-9.56,0.03-17.38-5.91-17.48-15.97
			c-0.11-9.84,7.74-16.31,17.37-16.34C578.88,94.15,586.77,100.57,586.74,110.42z M563.41,110.61c0.02,3.58,2.45,6.01,5.91,5.99
			c3.45,0,5.87-2.47,5.87-6.03c0-3.32-2.27-6.1-5.91-6.08C565.64,104.49,563.39,107.3,563.41,110.61z"/>
		<path class="st0" d="M590.68,94.69c3.69,0.01,7.37,0.04,11.05,0.07c3.41,5.8,6.78,11.63,10.15,17.46c0.11,0,0.22,0,0.33,0
			c-0.42-2.63-0.9-5.33-0.87-7.98c0.04-3.14,0.07-6.27,0.11-9.4c3.67,0.05,7.33,0.09,11,0.15c-0.15,10.44-0.3,20.88-0.45,31.31
			c-3.64-0.05-7.27-0.1-10.9-0.14c-3.28-5.52-6.57-11.03-9.89-16.53c-0.11,0-0.22-0.01-0.33-0.01c0.36,2.16,0.68,4.21,0.66,6.28
			c-0.02,3.39-0.04,6.78-0.07,10.17c-3.63-0.03-7.27-0.04-10.89-0.06C590.6,115.56,590.64,105.13,590.68,94.69z"/>
		<path class="st0" d="M646.4,115.54c0.2,0.15,0.39,0.31,0.58,0.46c2.01,1.63,4.44,2.97,7.07,3.04c1.12,0.02,2.93-0.38,2.96-1.79
			c0.04-1.42-1.46-1.58-2.51-1.81c-0.75-0.16-1.52-0.32-2.28-0.48c-4.45-0.89-8.15-3.6-8.04-8.49c0.15-7.43,7.1-11.44,14-11.25
			c3.61,0.1,6.91,1.06,9.96,3.03c-1.11,2.64-2.22,5.28-3.33,7.91c-1.93-1.39-4.12-2.49-6.6-2.55c-1-0.03-2.48,0.32-2.51,1.6
			c-0.03,1.17,1.39,1.37,2.26,1.6c0.87,0.22,1.72,0.44,2.58,0.66c4.83,1.21,8.25,3.9,8.1,9.2c-0.23,7.47-7.15,10.96-13.93,10.79
			c-3.96-0.1-8.5-1.28-12-3.15C643.94,121.37,645.17,118.46,646.4,115.54z"/>
		<path class="st0" d="M672.66,96.14c7.1,0.22,14.2,0.47,21.3,0.75c-0.11,2.85-0.22,5.7-0.34,8.55c-3.22-0.13-6.45-0.25-9.68-0.36
			c-0.03,0.99-0.07,2-0.1,2.99c2.94,0.11,5.89,0.21,8.83,0.32c-0.1,2.71-0.2,5.43-0.31,8.14c-2.93-0.12-5.87-0.23-8.8-0.33
			c-0.04,1.02-0.08,2.04-0.11,3.07c3.32,0.12,6.64,0.24,9.96,0.37c-0.11,2.85-0.23,5.7-0.32,8.55c-7.14-0.28-14.28-0.53-21.42-0.75
			C672,117,672.33,106.56,672.66,96.14z"/>
		<path class="st0" d="M699.04,97.08c4.63,0.18,9.28,0.38,13.91,0.6c7.14,0.31,13.04,3.6,12.64,11.48
			c-0.24,4.74-2.17,6.63-6.49,7.84c-0.01,0.08-0.01,0.17-0.02,0.26c0.56,0.48,1.25,1.02,1.82,1.95c2.12,3.5,4.23,6.99,6.33,10.49
			c-4.38-0.21-8.75-0.43-13.14-0.63c-1.51-3.42-3.02-6.85-4.54-10.27c-0.07-0.01-0.14-0.01-0.2-0.01
			c-0.15,3.34-0.29,6.68-0.45,10.04c-3.71-0.17-7.43-0.32-11.13-0.47C698.2,117.94,698.62,107.52,699.04,97.08z M709.68,111.42
			c0.27,0.01,0.53,0.03,0.8,0.03c1.88,0.09,3.77-0.12,3.88-2.44c0.11-2.41-1.59-2.78-3.56-2.86c-0.29-0.02-0.58-0.02-0.88-0.04
			C709.84,107.88,709.76,109.65,709.68,111.42z"/>
		<path class="st0" d="M761.61,100.27c-4.73,10.17-9.41,20.35-14.05,30.54c-3.21-0.18-6.42-0.37-9.63-0.54
			c-3.48-10.64-7.02-21.28-10.58-31.91c4.01,0.2,8.01,0.4,12.01,0.63c1.15,4.81,2.29,9.63,3.41,14.45c0.38,1.56,0.63,3.11,0.53,4.69
			c0.09,0,0.17,0.01,0.26,0.01c0.09-1.58,0.51-3.09,1.05-4.6c1.66-4.67,3.33-9.32,5-13.99C753.61,99.79,757.61,100.02,761.61,100.27
			z"/>
		<path class="st0" d="M764.25,100.43c3.84,0.24,7.67,0.49,11.51,0.74c-0.7,10.41-1.39,20.83-2.08,31.25
			c-3.79-0.25-7.58-0.49-11.37-0.72C762.96,121.27,763.6,110.86,764.25,100.43z"/>
		<path class="st0" d="M803.56,115.89c-1.71-1.84-3.9-3.46-6.49-3.65c-3.43-0.25-6.42,2.24-6.66,5.64c-0.26,3.44,2.52,6.3,5.92,6.55
			c2.63,0.2,4.79-0.77,6.76-2.4c-0.41,3.88-0.81,7.77-1.22,11.65c-1.9,0.73-6.15,0.78-8.18,0.63c-8.92-0.65-15.42-8.03-14.83-16.95
			c0.61-9.12,8.35-15.92,17.64-15.24c2.6,0.19,5.25,0.85,7.62,1.86C803.95,107.95,803.75,111.92,803.56,115.89z"/>
		<path class="st0" d="M808.42,103.51c7.09,0.56,14.17,1.13,21.26,1.73c-0.24,2.84-0.48,5.68-0.72,8.52
			c-3.21-0.27-6.43-0.53-9.66-0.8c-0.08,0.99-0.16,1.99-0.24,2.97c2.94,0.25,5.87,0.49,8.81,0.73c-0.23,2.7-0.45,5.41-0.68,8.12
			c-2.93-0.25-5.86-0.49-8.79-0.73c-0.09,1.02-0.16,2.04-0.26,3.07c3.32,0.26,6.64,0.54,9.95,0.83c-0.24,2.83-0.48,5.68-0.72,8.52
			c-7.12-0.6-14.24-1.18-21.37-1.73C806.82,124.34,807.62,113.93,808.42,103.51z"/>
		<path class="st0" d="M834.9,125.86c0.17,0.17,0.36,0.33,0.54,0.51c1.9,1.75,4.25,3.25,6.87,3.48c1.12,0.11,2.95-0.19,3.08-1.6
			c0.13-1.4-1.37-1.66-2.39-1.96c-0.75-0.21-1.49-0.41-2.25-0.61c-4.38-1.19-7.9-4.11-7.48-8.99c0.63-7.4,7.82-10.96,14.69-10.34
			c3.61,0.33,6.84,1.51,9.76,3.66c-1.28,2.56-2.56,5.12-3.83,7.68c-1.84-1.5-3.97-2.74-6.43-2.97c-1-0.08-2.5,0.16-2.61,1.44
			c-0.1,1.15,1.3,1.45,2.16,1.74c0.84,0.27,1.69,0.55,2.53,0.82c4.75,1.53,8,4.42,7.5,9.71c-0.7,7.44-7.85,10.48-14.6,9.87
			c-3.94-0.35-8.41-1.83-11.78-3.91C832.05,131.54,833.47,128.7,834.9,125.86z"/>
	</g>
	<g>
		<path class="st0" d="M394.97,87.08c-6.15,0.44-12.31,0.9-18.45,1.39c4.3-16.4,8.7-32.78,13.21-49.16
			c6.55-0.47,13.09-0.92,19.64-1.34c6.84,15.6,13.58,31.22,20.22,46.88c-6.16,0.35-12.31,0.73-18.46,1.13
			c-0.66-1.96-1.32-3.91-1.99-5.86c-4.4,0.28-8.8,0.59-13.2,0.9C395.62,83.04,395.29,85.06,394.97,87.08z M405.33,68.94
			c-0.88-2.77-1.75-5.54-2.63-8.31c-0.65-2-1.12-4.07-1.57-6.08c-0.22,0.01-0.44,0.02-0.65,0.04c-0.74,4.95-1.47,9.88-2.2,14.83
			C400.63,69.25,402.97,69.09,405.33,68.94z"/>
		<path class="st0" d="M427.92,36.84c5.92-0.34,11.85-0.66,17.77-0.96c0.55,10.86,1.1,21.71,1.65,32.57
			c4.91-0.25,9.83-0.49,14.74-0.7c0.23,5.13,0.46,10.26,0.69,15.39c-10.7,0.48-21.4,1.03-32.1,1.64
			C429.75,68.8,428.83,52.82,427.92,36.84z"/>
		<path class="st0" d="M462.88,35.07c5.92-0.27,11.85-0.5,17.78-0.73c0.4,10.86,0.81,21.73,1.22,32.59
			c4.91-0.19,9.82-0.35,14.74-0.51c0.16,5.13,0.32,10.27,0.48,15.41c-10.7,0.33-21.41,0.73-32.11,1.21
			C464.29,67.05,463.59,51.06,462.88,35.07z"/>
		<path class="st0" d="M518.9,33.2c12.46-0.28,24.93-0.46,37.4-0.56c0.04,5.2,0.09,10.4,0.13,15.6c-3.25-0.13-6.51-0.24-9.75-0.35
			c0.13,10.96,0.26,21.9,0.39,32.86c-5.83,0.06-11.65,0.15-17.47,0.26c-0.2-10.95-0.41-21.91-0.61-32.85
			c-3.24,0.2-6.49,0.42-9.74,0.64C519.13,43.61,519.01,38.41,518.9,33.2z"/>
		<path class="st0" d="M558.37,32.62c7.16-0.05,14.33-0.08,21.5-0.06c11.05,0,20.36,4.68,20.24,16.78
			c-0.07,7.27-2.92,10.29-9.48,12.42c0,0.12,0,0.26,0,0.38c0.9,0.71,1.99,1.48,2.94,2.88c3.47,5.22,6.93,10.45,10.35,15.69
			c-6.7-0.08-13.43-0.12-20.14-0.13c-2.54-5.15-5.09-10.28-7.66-15.42c-0.1,0-0.21,0-0.32,0c0,5.13,0.01,10.27,0.01,15.41
			c-5.7,0.01-11.39,0.03-17.09,0.07C558.61,64.63,558.49,48.62,558.37,32.62z M575.79,53.82c0.41,0,0.82,0,1.22,0
			c2.9,0,5.8-0.45,5.81-4.01c0-3.69-2.64-4.14-5.68-4.14c-0.45,0-0.9,0-1.35,0C575.79,48.39,575.79,51.1,575.79,53.82z"/>
		<path class="st0" d="M618.58,80.9c-6.16-0.11-12.32-0.18-18.49-0.23c5.71-15.96,11.53-31.89,17.44-47.82
			c6.56,0.11,13.12,0.23,19.68,0.38c5.46,16.14,10.81,32.29,16.05,48.46c-6.16-0.18-12.32-0.35-18.49-0.48
			c-0.48-2.01-0.97-4.01-1.46-6.02c-4.41-0.1-8.82-0.19-13.22-0.26C619.58,76.92,619.08,78.91,618.58,80.9z M630.47,63.73
			c-0.62-2.83-1.25-5.67-1.88-8.51c-0.48-2.05-0.75-4.16-1.04-6.2c-0.22-0.01-0.43-0.01-0.65-0.02c-1.17,4.87-2.33,9.72-3.49,14.59
			C625.77,63.64,628.12,63.68,630.47,63.73z"/>
		<path class="st0" d="M655.9,33.74c6.04,0.18,12.07,0.38,18.11,0.6c16.44,0.6,28.7,8.3,27.83,25.92
			c-0.71,14.25-11.21,22.78-25.27,22.23c-7.37-0.29-14.74-0.54-22.11-0.76C654.93,65.73,655.41,49.73,655.9,33.74z M672.45,67.93
			c0.36,0.02,0.72,0.03,1.09,0.04c5.83,0.21,10.42-2.27,10.69-8.57c0.28-6.74-3.54-9.77-10-10.02c-0.36-0.01-0.73-0.02-1.1-0.04
			C672.9,55.54,672.68,61.73,672.45,67.93z"/>
		<path class="st0" d="M706.58,35.75c10.97,0.54,21.93,1.16,32.89,1.83c-0.27,4.37-0.54,8.73-0.81,13.1
			c-4.97-0.31-9.94-0.61-14.91-0.89c-0.08,1.53-0.17,3.05-0.26,4.58c4.53,0.26,9.06,0.52,13.59,0.8c-0.25,4.16-0.51,8.31-0.77,12.46
			c-4.51-0.28-9.01-0.55-13.53-0.8c-0.09,1.57-0.17,3.14-0.26,4.71c5.1,0.29,10.2,0.59,15.29,0.91c-0.27,4.36-0.54,8.72-0.82,13.09
			c-10.93-0.68-21.86-1.3-32.79-1.84C704.99,67.72,705.79,51.73,706.58,35.75z"/>
		<path class="st0" d="M745.63,68.87c0.28,0.25,0.57,0.5,0.85,0.76c2.98,2.62,6.62,4.85,10.65,5.13c1.72,0.12,4.52-0.39,4.68-2.55
			c0.15-2.16-2.14-2.51-3.72-2.94c-1.15-0.29-2.31-0.59-3.48-0.88c-6.77-1.69-12.29-6.06-11.82-13.55
			c0.72-11.37,11.7-17.06,22.34-16.29c5.57,0.4,10.6,2.13,15.17,5.36c-1.92,3.96-3.82,7.92-5.72,11.88
			c-2.87-2.26-6.18-4.11-9.99-4.38c-1.55-0.12-3.84,0.3-3.99,2.27c-0.13,1.78,2.05,2.18,3.38,2.6c1.31,0.39,2.62,0.79,3.93,1.18
			c7.34,2.2,12.43,6.57,11.79,14.69c-0.92,11.43-11.78,16.25-22.14,15.52c-6.04-0.43-12.92-2.54-18.17-5.61
			C741.45,77.66,743.53,73.26,745.63,68.87z"/>
	</g>
	<g>
		<path class="st1" d="M781.92,150.77c-243.49-19.48-402.88-1.77-402.88-1.77s22.9,77.92,196.41,126.11
			C746.51,224.72,781.92,150.77,781.92,150.77z"/>
		<path class="st0" d="M575.49,278.79l-0.98-0.26c-173.41-48.17-197.9-125.27-198.86-128.53l-1.19-4.05l4.19-0.46
			c0.67-0.08,67.82-7.4,179.21-7.4c72.95,0,148.43,3.08,224.35,9.16l5.14,0.41l-2.22,4.65c-1.48,3.08-38.06,75.96-208.66,126.21
			L575.49,278.79z M384.12,152.05c7.66,16.37,45.55,78.65,191.31,119.38c141.95-42.02,189.45-100.82,200.52-117.58
			c-73.81-5.76-147.15-8.68-218.09-8.68C463.53,145.16,401.11,150.42,384.12,152.05z"/>
	</g>
	<g>
		<path class="st0" d="M424.89,152.32c4.94-0.33,8.32,2.99,8.62,7.48c0.28,4.28-2.92,8.16-7.57,8.46c-4.44,0.29-8.16-2.96-8.45-7.4
			C417.2,156.37,420.4,152.61,424.89,152.32z M425.14,155.88c-2.53,0.17-3.91,2.5-3.76,4.73c0.14,2.14,2.06,4.22,4.31,4.06
			c2.32-0.15,4.06-2.28,3.91-4.56C429.46,157.8,427.58,155.72,425.14,155.88z"/>
		<path class="st0" d="M437.59,155.42l0.1,1.72c0.78-1.09,1.61-1.9,3.07-1.98c2.62-0.15,3.87,1.59,4,4.09l0.41,7.26l-3.4,0.64
			l-0.39-7.02c-0.06-1.1-0.24-1.79-1.49-1.72c-1.64,0.09-1.85,1.31-1.78,2.45l0.33,6.03l-3.39,0.65l-0.64-11.47L437.59,155.42z"/>
		<path class="st0" d="M464.26,161.37c0.09,2.91-2.6,4.94-5.62,5.07c-2.39,0.12-3.74-0.35-5.65-1.72l2.11-2.86
			c0.88,0.75,1.89,1.3,3.08,1.25c1.07-0.05,2.24-0.4,2.18-1.68c-0.1-2.23-7.23-0.6-7.47-5.89c-0.15-3.24,2.63-4.95,5.41-5.07
			c1.92-0.09,3.61,0.4,5.18,1.47l-2.11,2.8c-0.85-0.67-1.69-0.98-2.79-0.93c-0.77,0.04-1.83,0.38-1.79,1.36
			C456.9,157.41,464.09,155.48,464.26,161.37z"/>
		<path class="st0" d="M466.66,149.45l2.44,1.95l-2.27,2.15l-2.44-1.95L466.66,149.45z M468.56,153.91l0.48,11.48l-3.4,0.6
			l-0.48-11.48L468.56,153.91z"/>
		<path class="st0" d="M473.68,150.71l0.14,3.45l1.92-0.07l0.12,3.04l-1.92,0.07l0.12,3.24c0.03,0.94,0.03,1.94,1.76,1.83
			c0,0,0.73,0,1.09-0.07l-0.74,3.37c-0.31,0.04-0.98,0.05-0.98,0.05c-2.9,0.1-4.44-1.92-4.56-5.04l-0.13-3.24l-1.78,0.07l0.7-3.07
			l0.96-0.04l-0.08-2.07L473.68,150.71z"/>
		<path class="st0" d="M488.23,156.69l-7.15,4.9c0.52,0.42,1.1,0.72,1.8,0.7c1.28-0.04,2.31-0.7,3.31-1.42l1.87,2.59
			c-1.51,1.2-3.06,1.96-5.02,2.02c-3.2,0.11-6.19-2.57-6.3-5.77c-0.12-3.52,2.3-6.27,5.95-6.4
			C485.33,153.22,487.13,154.63,488.23,156.69z M484.12,156.83c-0.4-0.28-0.81-0.5-1.32-0.48c-1.64,0.06-2.83,1.54-2.78,3.14
			L484.12,156.83z"/>
		<path class="st0" d="M491.58,160.37l2.63,2.52l-2.48,2.66l-2.66-2.55L491.58,160.37z"/>
		<path class="st0" d="M510.15,148.77c4.96-0.11,8.18,3.36,8.28,7.86c0.09,4.29-3.29,8.02-7.94,8.12c-4.45,0.09-8.01-3.33-8.11-7.78
			C502.28,152.47,505.66,148.86,510.15,148.77z M510.25,152.35c-2.53,0.05-4.01,2.32-3.97,4.56c0.04,2.15,1.87,4.3,4.13,4.25
			c2.33-0.04,4.16-2.1,4.11-4.37C514.48,154.45,512.7,152.3,510.25,152.35z"/>
		<path class="st0" d="M522.66,152.43l0.03,1.71c0.83-1.07,1.68-1.83,3.15-1.85c2.62-0.04,3.79,1.75,3.83,4.26l0.11,7.26l-3.42,0.51
			l-0.1-7.03c-0.01-1.09-0.16-1.8-1.42-1.78c-1.64,0.03-1.9,1.24-1.88,2.38l0.09,6.03l-3.42,0.51l-0.16-11.48L522.66,152.43z"/>
		<path class="st0" d="M538.68,148.57l4.59-0.03c2.62-0.02,6.4,0.53,6.42,4.69c0.03,3.38-2.22,5.03-6.22,5.06l-0.84,0l0.03,5.38
			l-3.87,0.49L538.68,148.57z M545.77,153.34c-0.01-1.03-0.9-1.66-2.15-1.65c-0.35,0-0.69,0.03-1.03,0.08l0.02,3.39l0.89-0.01
			C544.61,155.15,545.77,154.61,545.77,153.34z"/>
		<path class="st0" d="M556.19,152.09c3.39,0,6.27,2.34,6.28,6.02c0.01,3.33-2.69,6.14-6.3,6.15c-3.38,0-6.19-2.67-6.19-6.07
			C549.98,154.63,552.67,152.09,556.19,152.09z M556.21,155.28c-1.55,0-2.76,1.33-2.76,2.86c0,1.48,1.23,2.92,2.76,2.92
			c1.55-0.01,2.78-1.46,2.78-2.95C559,156.6,557.74,155.28,556.21,155.28z"/>
		<path class="st0" d="M565.21,147.64l2.35,2.06l-2.36,2.05l-2.34-2.06L565.21,147.64z M566.91,152.16l-0.03,11.48l-3.42,0.45
			l0.03-11.49L566.91,152.16z"/>
		<path class="st0" d="M571.75,152.17l-0.01,1.72c0.85-1.05,1.72-1.8,3.18-1.79c2.62,0.02,3.76,1.83,3.74,4.34l-0.04,7.26
			l-3.42,0.44l0.04-7.03c0.01-1.09-0.13-1.81-1.38-1.81c-1.65-0.01-1.93,1.2-1.93,2.34l-0.03,6.02l-3.43,0.44l0.06-11.48
			L571.75,152.17z"/>
		<path class="st0" d="M583.98,149.29l-0.03,3.45l1.92,0.01l-0.03,3.04l-1.92-0.02l-0.03,3.24c-0.01,0.93-0.06,1.94,1.67,1.91
			c0,0,0.73,0.04,1.09,0l-0.9,3.32c-0.32,0.02-0.98-0.01-0.98-0.01c-2.9-0.03-4.34-2.12-4.31-5.25l0.02-3.24l-1.78-0.02l0.86-3.03
			l0.96,0.01l0.02-2.08L583.98,149.29z"/>
		<path class="st0" d="M589.86,159.6l2.53,2.63l-2.59,2.55l-2.54-2.66L589.86,159.6z"/>
		<path class="st0" d="M608.91,148.77c4.95,0.1,8.04,3.69,7.94,8.19c-0.08,4.29-3.61,7.88-8.26,7.79c-4.46-0.09-7.88-3.65-7.79-8.1
			C600.9,152.15,604.41,148.67,608.91,148.77z M608.86,152.35c-2.53-0.05-4.11,2.16-4.15,4.4c-0.05,2.14,1.7,4.37,3.95,4.42
			c2.33,0.04,4.24-1.93,4.28-4.21C613,154.63,611.3,152.4,608.86,152.35z"/>
		<path class="st0" d="M621.26,152.91l-0.05,1.71c0.87-1.02,1.76-1.76,3.22-1.72c2.62,0.07,3.72,1.9,3.66,4.41l-0.19,7.26
			l-3.43,0.37l0.18-7.03c0.03-1.1-0.09-1.81-1.35-1.84c-1.64-0.04-1.95,1.16-1.97,2.31l-0.15,6.02l-3.43,0.37l0.29-11.48
			L621.26,152.91z"/>
		<path class="st0" d="M649.64,151.04l-7.04,14.71l-4-0.67l2.65-5.01l-5.53-9.12l3.7-1.27l3.82,6.29l2.83-6.08L649.64,151.04z"/>
		<path class="st0" d="M654.25,153.86c3.4,0.13,6.19,2.58,6.05,6.26c-0.12,3.33-2.92,6.04-6.53,5.9c-3.38-0.12-6.09-2.9-5.96-6.3
			C647.94,156.16,650.73,153.73,654.25,153.86z M654.16,157.06c-1.56-0.06-2.81,1.22-2.87,2.75c-0.06,1.48,1.13,2.97,2.65,3.03
			c1.56,0.05,2.84-1.36,2.89-2.85C656.89,158.49,655.68,157.12,654.16,157.06z"/>
		<path class="st0" d="M671.54,154.62l-0.47,11.48l-3.09,0.33l0.08-1.94c-0.33,1.24-1.41,2.04-2.94,1.98
			c-3.1-0.13-3.97-2.34-3.88-4.67l0.3-7.14l3.44-0.31l-0.32,7.6c-0.04,0.94,0.47,1.33,1.27,1.37c1.37,0.05,1.84-0.77,1.89-1.96
			l0.27-6.41L671.54,154.62z"/>
		<path class="st0" d="M676.27,154.83l-0.1,2.29c0.49-1.26,1.31-2.32,3.08-2.24c0.34,0.02,0.7,0.07,1.04,0.14l-1.16,3.44
			c-2.45-0.47-2.76,1.3-2.85,3.41l-0.2,4.45l-3.44,0.3l0.52-11.47L676.27,154.83z"/>
		<path class="st0" d="M697.92,163.19c-0.2,2.92-3.08,4.67-6.09,4.5c-2.4-0.12-3.69-0.71-5.47-2.27l2.38-2.64
			c0.8,0.85,1.75,1.49,2.93,1.55c1.07,0.05,2.27-0.19,2.34-1.46c0.11-2.23-7.13-1.3-6.87-6.59c0.17-3.24,3.1-4.67,5.89-4.52
			c1.92,0.1,3.55,0.75,5.02,1.97l-2.37,2.58c-0.79-0.75-1.59-1.13-2.68-1.19c-0.78-0.05-1.86,0.2-1.91,1.18
			C690.98,158.54,698.31,157.32,697.92,163.19z"/>
		<path class="st0" d="M702.88,156.16l-0.61,11.46l-3.45,0.28l0.62-11.47L702.88,156.16z M701.41,151.56l2.24,2.17l-2.46,1.93
			l-2.23-2.18L701.41,151.56z"/>
		<path class="st0" d="M716.43,152.81l-0.89,15.57l-3.15,0.28l0.09-1.64c-0.99,1.27-1.97,1.69-3.59,1.6
			c-3.04-0.17-5.51-3.24-5.34-6.23c0.19-3.38,2.59-6.13,6.23-5.91c1.12,0.06,2.1,0.55,2.93,1.28l0.26-4.7L716.43,152.81z
			 M710.02,159.69c-1.59-0.09-2.9,1.14-2.98,2.71c-0.09,1.48,1.06,2.97,2.59,3.06c1.7,0.1,2.89-0.96,2.98-2.59
			C712.71,161.26,711.55,159.78,710.02,159.69z"/>
		<path class="st0" d="M728.58,161.18l-7.59,4.2c0.48,0.46,1.02,0.82,1.74,0.86c1.28,0.08,2.36-0.47,3.43-1.09l1.61,2.76
			c-1.62,1.04-3.24,1.64-5.2,1.52c-3.19-0.19-5.91-3.16-5.71-6.35c0.22-3.51,2.9-6.02,6.54-5.79
			C726.01,157.46,727.68,159.02,728.58,161.18z M724.47,160.93c-0.37-0.32-0.77-0.57-1.27-0.61c-1.65-0.1-2.97,1.26-3.07,2.85
			L724.47,160.93z"/>
		<path class="st0" d="M731.52,165.17l2.38,2.76l-2.72,2.41l-2.4-2.79L731.52,165.17z"/>
	</g>
	<g>
		<defs>
			<path id="SVGID_1_" d="M781.92,150.77c-243.49-19.48-402.88-1.77-402.88-1.77s22.9,78.66,196.41,126.86
				C746.51,225.47,781.92,150.77,781.92,150.77z"/>
		</defs>
		<clipPath id="SVGID_00000159455225791070389840000003541342393755760565_">
			<use xlink:href="#SVGID_1_"  style="overflow:visible;"/>
		</clipPath>
	</g>
</g>
</svg>
